<?xml version="1.0" encoding="UTF-8"?>
<svg xmlns="http://www.w3.org/2000/svg" xmlns:xlink="http://www.w3.org/1999/xlink" width="149px" height="32px" viewBox="0 0 149 32" version="1.1">
  <title>Group 23</title>
  <defs>
    <polygon id="path-1" points="0 0 21.6447633 0 21.6447633 22.4864957 0 22.4864957"></polygon>
    <polygon id="path-3" points="0 0 22.5951186 0 22.5951186 22.4864957 0 22.4864957"></polygon>
    <polygon id="path-5" points="0 0 21.1254319 0 21.1254319 31.5676003 0 31.5676003"></polygon>
    <polygon id="path-7" points="0 32 149 32 149 0 0 0"></polygon>
  </defs>
  <g id="Ontwerp-Ficare" stroke="none" stroke-width="1" fill="none" fill-rule="evenodd">
    <g id="Homepage---Ficare" transform="translate(-375.000000, -83.000000)">
      <g id="Group-20" transform="translate(375.000000, 83.000000)">
        <polygon id="Fill-1" fill="#82CFF4" points="7.88458519 23.6755752 23.6534928 23.6755752 23.6534928 15.7836291 7.88458519 15.7836291"></polygon>
        <polygon id="Fill-2" fill="#222C56" points="7.88432238 31.5675214 15.7689076 31.5675214 15.7689076 23.6755752 7.88432238 23.6755752"></polygon>
        <polygon id="Fill-3" fill="#E56E61" points="0 15.7836291 15.7689076 15.7836291 15.7689076 7.89168304 0 7.89168304"></polygon>
        <g id="Group-19">
          <g id="Group-6" transform="translate(63.741116, 9.513504)">
            <mask id="mask-2" fill="white">
              <use xlink:href="#path-1"></use>
            </mask>
            <g id="Clip-5"></g>
            <path d="M0,11.2433926 C0,4.88669303 4.96833995,0 11.2760081,0 C16.0716756,0 19.8733598,2.7242998 21.5151933,6.61608148 L17.3679014,8.38940177 C16.2874505,5.88107824 14.0839717,4.3245234 11.2760081,4.3245234 C7.43095873,4.3245234 4.53626468,7.39449044 4.53626468,11.2433926 C4.53626468,15.0486259 7.47406113,18.1622617 11.3624757,18.1622617 C14.3002722,18.1622617 16.4603857,16.3457988 17.4541062,13.9245497 L21.6447633,15.6973439 C19.916725,19.6756739 16.3308157,22.486522 11.2760081,22.486522 C4.88187233,22.486522 0,17.4704011 0,11.2433926" id="Fill-4" fill="#222C56" mask="url(#mask-2)"></path>
          </g>
          <g id="Group-9" transform="translate(86.985609, 9.513504)">
            <mask id="mask-4" fill="white">
              <use xlink:href="#path-3"></use>
            </mask>
            <g id="Clip-8"></g>
            <path d="M0,11.2433926 C0,4.3245234 5.14101237,0 10.8008304,0 C13.6521593,0 16.3739181,1.25376717 17.9726491,3.24306372 L17.9726491,0.432215582 L22.5951186,0.432215582 L22.5951186,22.0543065 L17.9726491,22.0543065 L17.9726491,19.0703616 C16.3308157,21.1893492 13.608794,22.486522 10.7574652,22.486522 C5.27058238,22.486522 0,18.1191191 0,11.2433926 M18.2317892,11.1999868 C18.2317892,7.3513478 15.3370951,4.19456935 11.4055781,4.19456935 C7.56052874,4.19456935 4.57936708,7.26453639 4.57936708,11.1999868 C4.57936708,15.1351742 7.56052874,18.24881 11.4055781,18.24881 C15.3370951,18.24881 18.2317892,15.0917685 18.2317892,11.1999868" id="Fill-7" fill="#222C56" mask="url(#mask-4)"></path>
          </g>
          <path d="M113.323934,9.94577247 L117.946666,9.94577247 L117.946666,13.2756476 C119.069957,11.1569231 121.057398,9.94577247 123.908464,9.94577247 L126.45755,9.94577247 L126.45755,14.3568442 L123.217512,14.3568442 C119.458667,14.3568442 117.989769,16.3458777 117.989769,20.8432347 L117.989769,31.5676003 L113.323934,31.5676003 L113.323934,9.94577247 Z" id="Fill-10" fill="#222C56"></path>
          <path d="M126.664021,20.8433136 C126.664021,14.4866141 131.545894,9.5136358 137.896927,9.5136358 C144.2908,9.5136358 149,14.1404207 149,20.540526 L149,22.3567258 L131.113818,22.3567258 C131.718829,25.6863379 134.311018,27.8918738 138.0696,27.8918738 C141.007396,27.8918738 143.253977,26.3353189 144.377268,23.999829 L148.179215,26.1188165 C146.278241,29.6646679 142.865004,31.9998948 138.0696,31.9998948 C131.243389,31.9998948 126.664021,27.1134648 126.664021,20.8433136 M131.329856,18.4215384 L144.2908,18.4215384 C143.599585,15.3081657 141.223434,13.5782511 137.896927,13.5782511 C134.699728,13.5782511 132.194007,15.5672846 131.329856,18.4215384" id="Fill-12" fill="#222C56"></path>
          <g id="Group-16" transform="translate(39.597806, 0.000000)">
            <mask id="mask-6" fill="white">
              <use xlink:href="#path-5"></use>
            </mask>
            <g id="Clip-15"></g>
            <path d="M8.33821166,9.94577247 L8.33821166,8.86483891 C8.33821166,4.9725311 8.81312651,4.28067049 12.9178416,4.28067049 L16.4598601,4.28093355 L16.4598601,-0.000184145409 L12.5288687,-0.000184145409 C5.74602287,-0.000184145409 3.67237696,2.07566074 3.67237696,8.82143321 L3.67237696,9.94577247 L0,9.94577247 L0,14.0971992 L3.67237696,14.0971992 L3.67237696,31.5676003 L8.33821166,31.5676003 L8.33821166,14.0971992 L16.4595972,14.0971992 L16.4595972,31.5676003 L21.1254319,31.5676003 L21.1254319,14.0971992 L21.1254319,9.94577247 L8.33821166,9.94577247 Z" id="Fill-14" fill="#222C56" mask="url(#mask-6)"></path>
          </g>
          <mask id="mask-8" fill="white">
            <use xlink:href="#path-7"></use>
          </mask>
          <g id="Clip-18"></g>
          <polygon id="Fill-17" fill="#DBB388" mask="url(#mask-8)" points="7.88458519 7.89168304 31.5383408 7.89168304 31.5383408 0 7.88458519 0"></polygon>
        </g>
      </g>
    </g>
  </g>
</svg>
